<?xml version="1.0" standalone="no"?><!DOCTYPE svg PUBLIC "-//W3C//DTD SVG 1.1//EN" "http://www.w3.org/Graphics/SVG/1.1/DTD/svg11.dtd"><svg t="1599120291509" class="icon" viewBox="0 0 1024 1024" version="1.1" xmlns="http://www.w3.org/2000/svg" p-id="3736" width="64" height="64" xmlns:xlink="http://www.w3.org/1999/xlink"><defs><style type="text/css"></style></defs><path d="M1024 512c0-281.6-230.4-512-512-512S0 230.4 0 512s230.4 512 512 512 512-230.4 512-512zM76.8 512C76.8 270.628571 270.628571 76.8 512 76.8S947.2 270.628571 947.2 512 753.371429 947.2 512 947.2 76.8 753.371429 76.8 512z" p-id="3737" fill="#409eff"></path><path d="M614.4 691.2l-7.314286-288.914286-138.971428 256 40.228571 131.657143 106.057143-98.742857z" p-id="3738" fill="#409eff"></path><path d="M512 190.171429c-168.228571 0-303.542857 135.314286-303.542857 303.542857v7.314285c3.657143 18.285714 21.942857 32.914286 40.228571 32.914286 14.628571 0 25.6-7.314286 32.914286-18.285714H292.571429v-21.942857c0-120.685714 98.742857-219.428571 219.428571-219.428572s219.428571 98.742857 219.428571 219.428572c0 21.942857 18.285714 40.228571 40.228572 40.228571 21.942857 0 36.571429-14.628571 40.228571-36.571428v-3.657143c3.657143-168.228571-131.657143-303.542857-299.885714-303.542857z" p-id="3739" fill="#409eff"></path></svg>
