<?xml version="1.0" standalone="no"?><!DOCTYPE svg PUBLIC "-//W3C//DTD SVG 1.1//EN" "http://www.w3.org/Graphics/SVG/1.1/DTD/svg11.dtd"><svg t="1557394508340" class="icon" style="" viewBox="0 0 1024 1024" version="1.1" xmlns="http://www.w3.org/2000/svg" p-id="1696" xmlns:xlink="http://www.w3.org/1999/xlink" width="32" height="32"><defs><style type="text/css"></style></defs><path d="M740.5967 162.5743c33.9282 0 61.698 34.1053 61.698 75.7924v547.971072c0 41.686-27.7699 75.7821-61.698 75.7821h-30.839808c-33.9292 0-61.6929-34.0961-61.6929-75.7821V238.36672000000002c0-41.687 27.7637-75.7924 61.6929-75.7924H740.596736z" p-id="1697" fill="#409eff"></path><path d="M314.2922 162.5743c33.9313 0 61.696 34.1053 61.696 75.7924v547.971072c0 41.686-27.7658 75.7821-61.696 75.7821H283.45651200000003c-33.9343 0-61.698-34.0961-61.698-75.7821V238.36672000000002c0-41.687 27.7637-75.7924 61.698-75.7924H314.29222400000003z" p-id="1698" fill="#409eff"></path></svg>
